<svg xmlns="http://www.w3.org/2000/svg" version="1.1" viewBox="0.5 373.23 996.36 319.77"><path d="M 148.500 374.405 C 141.205 376.053, 136.389 378.728, 132.467 383.310 C 129.518 386.755, 129 388.104, 129 392.336 C 129 398.138, 131.694 402.403, 137.729 406.155 C 144.044 410.081, 148.019 410.969, 159.357 410.985 L 170.214 411 176.556 407.973 C 185.280 403.809, 189 399.170, 189 392.452 C 189 388.087, 188.505 386.781, 185.533 383.310 C 178.283 374.840, 162.925 371.147, 148.500 374.405 M 91 383.603 C 78.189 388.363, 67 398.822, 67 406.036 C 67 410.356, 71.845 414.610, 77.490 415.246 C 80.025 415.532, 82.304 415.970, 82.554 416.221 C 82.804 416.471, 82.513 418.099, 81.907 419.838 C 81.204 421.855, 80.133 423, 78.949 423 C 77.183 423, 74.550 423.890, 69 426.363 C 61.230 429.826, 54.688 438.285, 52.492 447.712 C 50.953 454.317, 52.055 461.269, 55.808 468.624 C 61.879 480.522, 78.904 486.863, 92.216 482.184 L 97.843 480.207 109.607 492.353 C 116.077 499.034, 124.053 507.278, 127.331 510.674 L 133.292 516.848 131.146 521.413 C 128.160 527.765, 128.154 539.222, 131.133 545.560 L 133.266 550.098 124.883 558.807 C 120.272 563.597, 112.271 571.945, 107.101 577.359 L 97.702 587.201 93.965 585.100 C 91.076 583.477, 88.496 583, 82.600 583 C 78.405 583, 74.191 583.397, 73.236 583.883 C 72.281 584.369, 70.204 585.377, 68.619 586.122 C 63.872 588.356, 57.554 594.522, 55.268 599.152 C 49.762 610.303, 50.859 621.906, 58.413 632.400 C 61.784 637.084, 71.672 643, 76.129 643 C 79.347 643, 80.189 643.465, 81.474 645.950 C 83.581 650.024, 83.396 651, 80.520 651 C 74.021 651, 67 656.125, 67 660.870 C 67 664.279, 71.349 671.106, 76.004 675.003 C 81.196 679.351, 92.287 685, 95.630 685 C 96.882 685, 99.028 685.511, 100.400 686.137 C 103.943 687.751, 114.317 685.356, 117.236 682.249 C 120.408 678.872, 119.965 672.768, 116.207 668.092 C 112.931 664.015, 104.870 657.590, 100.711 655.740 C 99.054 655.003, 97.716 653.485, 97.415 652 C 97.137 650.625, 96.440 647.740, 95.866 645.589 C 94.957 642.180, 95.059 641.553, 96.662 640.701 C 97.673 640.163, 100.804 637.380, 103.620 634.517 C 113.297 624.678, 115.422 612.869, 109.763 600.381 C 109.235 599.216, 108.960 597.571, 109.151 596.725 C 109.343 595.880, 117.067 587.286, 126.315 577.628 L 143.131 560.069 147.315 561.784 C 152.916 564.081, 165.084 564.081, 170.685 561.784 L 174.869 560.069 191.685 577.628 C 200.933 587.286, 208.657 595.880, 208.849 596.725 C 209.040 597.571, 208.759 599.216, 208.223 600.381 C 205.594 606.099, 205 608.517, 205 613.500 C 205 618.606, 205.377 620.076, 208.608 627.583 C 209.927 630.647, 217.751 638.642, 221.465 640.721 C 223.158 641.668, 223.253 642.149, 222.204 644.451 C 221.542 645.905, 221 648.161, 221 649.465 C 221 652.599, 220.030 655, 218.764 655 C 217.172 655, 205.758 663.027, 203.249 665.912 C 193.816 676.756, 198.670 686.365, 213.500 686.208 C 223.033 686.106, 231.480 682.719, 241.545 674.962 C 246.258 671.329, 251 664.554, 251 661.453 C 251 656.397, 244.309 651, 238.040 651 C 234.603 651, 234.350 650.157, 236.526 645.950 C 237.807 643.473, 238.657 643, 241.830 643 C 248.286 643, 257.516 636.085, 262.596 627.440 C 265.191 623.026, 265.500 621.588, 265.500 613.930 C 265.500 606.892, 265.079 604.542, 263.144 600.779 C 259.396 593.493, 255.526 589.499, 248.952 586.134 C 243.705 583.449, 241.759 583, 235.365 583 C 230.052 583, 226.758 583.553, 223.927 584.921 L 219.950 586.843 210.725 577.179 C 205.651 571.865, 197.728 563.597, 193.117 558.807 L 184.734 550.098 186.867 545.560 C 189.136 540.733, 189.897 527.737, 188.117 524.236 C 187.631 523.281, 186.647 521.247, 185.929 519.716 L 184.625 516.932 191.063 510.238 C 194.603 506.557, 202.675 498.247, 209 491.771 L 220.500 479.998 223.500 481.688 C 225.746 482.953, 228.814 483.361, 235.707 483.309 C 243.714 483.250, 245.473 482.909, 249.207 480.691 C 255.271 477.090, 259.222 473.181, 262.588 467.454 C 265.204 463.004, 265.495 461.636, 265.449 454 C 265.395 444.973, 263.529 439.439, 258.687 433.949 C 254.231 428.895, 243.523 423, 238.800 423 C 237.201 423, 234.266 417.400, 235.316 416.351 C 235.638 416.029, 237.946 415.535, 240.444 415.253 C 249.124 414.275, 252.591 408.364, 248.985 400.692 C 244.053 390.199, 226.993 381, 212.467 381 C 206.173 381, 205.058 381.306, 201.976 383.879 C 199.001 386.363, 198.543 387.331, 198.637 390.939 C 198.785 396.577, 202.505 401.064, 212.782 408 C 220.107 412.944, 220.935 413.824, 220.966 416.703 C 220.984 418.465, 221.554 421.121, 222.230 422.606 C 223.308 424.972, 223.222 425.443, 221.535 426.403 C 217.091 428.933, 209.722 436.715, 207.760 440.948 C 204.210 448.610, 204.429 462.144, 208.174 466.450 C 210.486 469.108, 208.193 472.293, 191.731 489.292 L 174.500 507.084 169.239 505.042 C 161.574 502.067, 149.922 502.731, 145.104 506.419 C 144.003 507.261, 140.043 503.684, 126.369 489.494 C 109.796 472.295, 107.507 469.106, 109.831 466.450 C 111.206 464.879, 113 457.523, 113 453.455 C 113 449.359, 111.676 444.502, 109.105 439.169 C 107.542 435.925, 100.267 428.564, 96.530 426.444 C 94.897 425.518, 94.812 424.979, 95.834 422.045 C 96.476 420.206, 97.004 417.531, 97.009 416.101 C 97.016 414.010, 98.239 412.715, 103.245 409.500 C 115.244 401.793, 119.200 396.988, 119.200 390.121 C 119.200 387.279, 118.509 385.954, 115.888 383.765 C 112.883 381.257, 111.876 381.009, 105.038 381.094 C 99.713 381.160, 95.592 381.897, 91 383.603 M 151 423.950 C 150.175 424.408, 147.317 425.826, 144.649 427.101 C 139.174 429.717, 134.098 435.132, 131.057 441.603 C 127.936 448.242, 128.175 459.564, 131.579 466.355 C 134.859 472.899, 136.187 474.349, 143.397 479.259 L 149.295 483.275 158.501 483.318 C 166.836 483.357, 168.172 483.093, 172.604 480.526 C 178.933 476.862, 184.089 471.469, 186.821 465.657 C 189.904 459.099, 189.828 448.929, 186.642 441.725 C 182.621 432.633, 178.252 428.777, 166.703 424.126 C 163.487 422.831, 153.223 422.716, 151 423.950 M 26.513 443.068 C 20.658 445.988, 15.579 451.415, 12.198 458.363 C 7.359 468.306, 6.676 470.802, 6.586 478.894 C 6.493 487.216, 7.821 490.526, 12.476 493.576 C 15.703 495.691, 20.149 494.276, 25.989 489.277 L 30.269 485.614 32.228 488.057 C 33.305 489.401, 36.057 492.534, 38.343 495.020 C 40.629 497.505, 45.836 503.283, 49.912 507.860 L 57.325 516.180 55.553 519.180 C 54.578 520.830, 53.187 524.727, 52.462 527.840 C 51.364 532.552, 51.369 534.473, 52.495 539.309 C 53.239 542.503, 54.556 546.200, 55.423 547.524 C 57.555 550.777, 57.512 550.931, 53.224 555.500 C 51.160 557.700, 45.475 564, 40.592 569.500 C 35.709 575, 31.329 579.927, 30.859 580.448 C 30.341 581.022, 28.722 580.183, 26.752 578.318 C 20.281 572.193, 14.095 571.178, 9.746 575.527 C 0.835 584.438, 9.700 613.473, 24.110 622.570 C 29.922 626.238, 34.162 625.840, 37.927 621.272 C 40.717 617.888, 40.999 616.897, 40.985 610.522 C 40.977 606.660, 40.321 601.700, 39.529 599.500 C 38.736 597.300, 38.068 594.940, 38.044 594.255 C 38.004 593.116, 49.848 579.543, 62.647 566.059 L 67.812 560.618 72.156 562.059 C 78.937 564.308, 89.758 563.663, 95.694 560.655 C 105.808 555.530, 112.951 544.435, 112.985 533.797 C 113.019 523.022, 105.095 510.759, 95.353 506.512 C 93.234 505.588, 90.719 504.420, 89.764 503.916 C 85.958 501.908, 73.955 503.299, 69.298 506.288 C 68.009 507.114, 67.421 506.521, 49.166 486 L 38.046 473.500 38.655 470 C 38.989 468.075, 39.654 465.742, 40.132 464.816 C 41.570 462.026, 41.124 451.328, 39.421 447.757 C 38.053 444.888, 33.178 440.920, 31.169 441.040 C 30.801 441.062, 28.706 441.975, 26.513 443.068 M 282.930 442.746 C 281.516 443.605, 279.604 445.626, 278.680 447.235 C 276.500 451.033, 276.464 461.487, 278.608 468.041 L 280.217 472.959 273.358 480.729 C 269.586 485.003, 266.275 488.725, 266 489 C 265.725 489.275, 263.739 491.525, 261.586 494 C 251.830 505.218, 249.835 507.109, 248.674 506.235 C 245.045 503.501, 231.930 501.996, 228.236 503.891 C 227.281 504.380, 224.341 505.812, 221.702 507.072 C 216.203 509.699, 210.645 515.407, 208.341 520.794 C 207.469 522.832, 206.361 525.281, 205.878 526.236 C 204.627 528.710, 204.792 538.395, 206.141 541.703 C 209.204 549.217, 210.186 550.797, 214.189 554.661 C 221.062 561.296, 225.091 563.064, 233.864 563.297 C 238.384 563.417, 243.273 562.912, 245.844 562.059 L 250.188 560.618 255.355 566.059 C 258.197 569.052, 264.342 575.772, 269.011 580.992 C 273.680 586.213, 278.063 591.083, 278.750 591.814 C 280.310 593.473, 280.273 594.498, 278.471 599.500 C 276.756 604.262, 276.542 616.235, 278.117 619.316 C 281.349 625.636, 287.719 626.666, 294.541 621.972 C 300.341 617.982, 309 605.439, 309 601.029 C 309 599.978, 309.386 598.880, 309.857 598.588 C 310.328 598.297, 310.981 595.471, 311.308 592.308 C 312.601 579.781, 309.501 573, 302.482 573 C 298.151 573, 295.581 574.217, 291.248 578.318 C 289.295 580.167, 287.662 581.017, 287.160 580.448 C 282.536 575.208, 265.994 556.785, 263.659 554.276 L 260.659 551.053 263.079 546.346 C 266.535 539.627, 266.548 527.399, 263.108 520.709 L 260.715 516.058 264.525 511.779 C 266.621 509.425, 271.809 503.675, 276.056 499 C 280.302 494.325, 284.675 489.389, 285.774 488.031 L 287.773 485.562 291.644 489.059 C 297.290 494.160, 301.582 495.750, 304.790 493.928 C 310.006 490.967, 311.494 487.576, 311.366 478.945 C 311.219 468.980, 309.501 463.945, 302.803 453.843 C 298.688 447.638, 295.278 444.561, 290.128 442.409 C 286.149 440.746, 286.223 440.743, 282.930 442.746 M 12.213 504.459 C 8.374 506.578, 5.377 509.879, 2.881 514.736 L 0.500 519.368 0.500 533.934 L 0.500 548.500 3.161 553 C 8.310 561.709, 12.005 563.800, 21.150 563.180 C 26.213 562.836, 33.029 553.795, 36.014 543.461 C 37.167 539.469, 36.909 528.360, 35.526 522.500 C 32.188 508.358, 20.930 499.646, 12.213 504.459 M 293.045 505.537 C 281.512 513.681, 277.351 535.411, 284.341 551 C 290.158 563.973, 302.886 567.588, 310.842 558.527 C 313.637 555.344, 314.780 553.255, 317.859 545.703 C 319.834 540.862, 319.277 526.414, 316.852 519.567 C 314.037 511.617, 312.556 509.479, 307.418 505.943 C 302.161 502.326, 297.769 502.202, 293.045 505.537 M 146.634 585.417 C 140.291 588.418, 134.366 594.250, 131.387 600.426 C 129.492 604.355, 129 606.997, 129 613.250 C 129 625.872, 133.711 633.644, 145.577 640.598 C 149.719 643.025, 151.209 643.322, 159.071 643.285 C 166.871 643.249, 168.471 642.918, 172.704 640.468 C 183.757 634.070, 189 625.393, 189 613.497 C 189 609.359, 188.603 605.191, 188.117 604.236 C 187.631 603.281, 186.623 601.204, 185.878 599.619 C 183.678 594.944, 177.130 588.144, 173.175 586.427 C 171.154 585.550, 168.719 584.420, 167.764 583.916 C 164.279 582.078, 151.823 582.963, 146.634 585.417 M 154 656 C 152.625 656.440, 150.258 656.845, 148.739 656.900 C 144.549 657.052, 137.032 660.968, 132.792 665.208 C 129.383 668.617, 129 669.521, 129 674.156 C 129 680.152, 131.623 684.359, 137.729 688.155 C 144.044 692.081, 148.019 692.969, 159.357 692.985 L 170.214 693 176.556 689.973 C 185.148 685.872, 189 681.147, 189 674.707 L 189 669.870 183.565 664.435 C 180.576 661.446, 177.420 659, 176.552 659 C 175.683 659, 174.191 658.598, 173.236 658.108 C 171.323 657.125, 160.223 654.942, 157.940 655.100 C 157.148 655.155, 155.375 655.560, 154 656" stroke="none" fill="#8019e6" fill-rule="evenodd"/><path d="M 378 482 C 377.175 482.533, 375.726 482.976, 374.780 482.985 C 371.296 483.016, 361.569 488.323, 356.771 492.811 C 350.849 498.350, 347.868 503.256, 345.022 512.144 C 343.162 517.953, 342.942 520.594, 343.271 533.144 C 343.477 541.040, 344.115 549.130, 344.689 551.122 C 348.915 565.802, 361.567 577.861, 376.305 581.255 C 383.568 582.927, 402.002 583.311, 408 581.914 C 420.302 579.049, 429.320 573.520, 434.488 565.674 C 439.166 558.572, 441.159 552.114, 440.799 545.222 L 440.500 539.500 426.637 539.221 C 417.549 539.038, 412.314 539.325, 411.436 540.053 C 410.700 540.664, 409.816 543.039, 409.471 545.332 C 408.714 550.365, 407.540 552.092, 402.982 554.870 C 398.072 557.863, 389.502 557.802, 384.898 554.741 C 379.062 550.861, 377.087 545.259, 377.056 532.500 C 377.010 513.009, 381.013 507, 394.046 507 C 398.670 507, 400.915 507.516, 403.117 509.083 C 406.202 511.280, 409 516.710, 409 520.500 C 409 524.606, 410.871 525.074, 426.136 524.778 L 440.500 524.500 440.805 518.589 C 441.179 511.321, 439.279 505.583, 433.739 497.259 C 431.116 493.318, 420.465 485, 418.041 485 C 417.454 485, 416.191 484.605, 415.236 484.123 C 410.517 481.739, 405.224 481.001, 392.929 481.015 C 385.543 481.024, 378.825 481.467, 378 482 M 459.495 483.153 C 459.212 483.894, 459.096 506.100, 459.240 532.500 L 459.500 580.500 474.865 580.777 C 485.346 580.965, 490.671 580.688, 491.615 579.904 C 492.688 579.014, 493 575.183, 493 562.878 L 493 547 497.414 547 L 501.828 547 510.164 563.750 L 518.500 580.500 536.272 580.773 C 551.501 581.007, 554.129 580.826, 554.634 579.510 C 554.959 578.666, 554.787 577.418, 554.253 576.737 C 553.719 576.057, 550.445 570.100, 546.978 563.500 C 543.511 556.900, 539.370 549.039, 537.776 546.032 C 534.609 540.057, 534.515 540.344, 540.772 536.885 C 547.058 533.408, 553 521.803, 553 513 C 553 510.509, 552.147 506.139, 551.105 503.288 C 547.844 494.364, 543.765 489.819, 535 485.338 L 529.500 482.527 494.756 482.166 C 466.298 481.871, 459.918 482.049, 459.495 483.153 M 571.033 483.461 C 570.120 484.561, 569.908 493.377, 570.175 519.211 L 570.530 553.500 573.875 560.262 C 578.934 570.487, 589.417 578.511, 601.305 581.258 C 608.283 582.870, 627.952 583.311, 634 581.991 C 648.252 578.880, 659.928 571.078, 664.343 561.714 C 668.529 552.836, 669 548.176, 669 515.651 C 669 492.678, 668.682 484.082, 667.800 483.200 C 666.125 481.525, 637.875 481.525, 636.200 483.200 C 635.321 484.079, 634.987 492.578, 634.952 514.950 C 634.898 549.023, 634.680 550.289, 628.102 554.714 C 621.713 559.012, 610.068 556.889, 605.943 550.675 C 604.789 548.936, 604.400 542.083, 604 516.500 C 603.725 498.900, 603.136 483.938, 602.691 483.250 C 601.431 481.302, 572.665 481.494, 571.033 483.461 M 691.113 483.364 C 690.296 484.348, 690.053 498.088, 690.240 532.614 L 690.500 580.500 719.500 580.436 C 746.661 580.377, 751.444 580.069, 756.500 578.051 C 771.373 572.117, 779.546 562.841, 783.594 547.299 C 786.157 537.461, 785.215 518.666, 781.726 510 C 776.543 497.127, 766.689 488.118, 754.122 484.765 C 747.256 482.933, 735.436 482.142, 713.872 482.071 C 696.758 482.015, 692.009 482.285, 691.113 483.364 M 802.113 483.364 C 801.296 484.348, 801.053 498.088, 801.240 532.614 L 801.500 580.500 818 580.500 L 834.500 580.500 834.774 563.771 L 835.048 547.042 854.774 546.771 L 874.500 546.500 874.784 535.084 C 874.941 528.806, 874.653 523.253, 874.144 522.744 C 873.636 522.236, 864.621 521.748, 854.110 521.660 L 835 521.500 835 514.750 L 835 508 857.965 508 L 880.930 508 881.965 506.066 C 882.534 505.002, 883 499.859, 883 494.637 C 883 487.339, 882.636 484.779, 881.429 483.571 C 880.055 482.198, 875.041 482, 841.551 482 C 810.415 482, 803.033 482.255, 802.113 483.364 M 889.626 483.533 C 889.263 484.477, 893.001 491.106, 899.353 500.783 C 905.027 509.427, 913.558 522.445, 918.312 529.710 L 926.956 542.921 927.228 561.710 L 927.500 580.500 944 580.500 L 960.500 580.500 960.772 561.252 L 961.043 542.003 967.654 531.752 C 976.602 517.876, 989.580 497.676, 993.724 491.176 C 999.192 482.600, 999.109 482.545, 980.213 482.225 L 963.951 481.950 961.567 484.522 C 960.256 485.937, 958.462 488.536, 957.582 490.297 C 956.701 492.059, 954.640 495.750, 953.001 498.500 C 951.363 501.250, 948.804 505.668, 947.316 508.317 L 944.609 513.134 942.827 510.817 C 941.847 509.543, 941.034 508.208, 941.022 507.852 C 941.010 507.496, 939.200 504.242, 937 500.620 C 934.800 496.999, 933 493.812, 933 493.537 C 933 493.263, 931.411 490.555, 929.469 487.519 L 925.939 482 908.076 482 C 892.950 482, 890.124 482.235, 889.626 483.533 M 493 514.500 L 493 522 501.375 522 C 513.688 522, 515.956 521.348, 517.636 517.330 C 518.749 514.664, 518.796 513.486, 517.860 511.727 C 515.677 507.630, 513.920 507.065, 503.250 507.032 L 493 507 493 514.500 M 724.750 508.562 C 724.337 508.986, 724 519.608, 724 532.167 L 724 555 731.550 555 C 739.290 555, 743.066 553.800, 746.175 550.352 C 752.091 543.791, 752.657 523.933, 747.203 514.260 C 746.509 513.029, 744.675 511.366, 743.128 510.566 C 739.941 508.918, 725.894 507.386, 724.750 508.562" stroke="none" fill="#040404" fill-rule="evenodd"/></svg>